#!OML:ASF H:\LiuWeirdWalks\Patient Classification 1\Patient 1\Session 1\male.ASF
:FULLY-SPECIFIED
:DEGREES
540
root 1.1706 17.9598 22.1489 0.329026 7.86835 -7.504
lowerback 2.8234 3.25898 5.9286
upperback -1.50881 4.66256 2.2855
thorax -2.86283 2.23108 -1.18482
lowerneck -13.5797 1.15417 5.93556
upperneck 22.0964 1.68946 -5.96826
head 9.28073 0.657751 -2.85316
rclavicle -2.41076e-014 -3.93594e-014
rhumerus -27.0078 7.9048 -69.2305
rradius 55.2833
rwrist -0.451402
rhand -11.3303 7.62042
rfingers 7.12502
rthumb 14.7023 -21.8383
lclavicle -2.41076e-014 -3.93594e-014
lhumerus -24.3125 8.27095 64.5142
lradius 49.306
lwrist 10.371
lhand -18.6017 -4.85458
lfingers 7.12502
lthumb 7.68958 24.9856
rfemur 8.24389 -4.34029 32.3711
rtibia 17.1572
rfoot -10.3089 -18.4757
rtoes -11.7379
lfemur -31.8217 -2.08552 -9.83082
ltibia 29.4869
lfoot -9.09511 18.1953
ltoes -16.7843
541
root 1.18786 17.9512 22.2786 0.380749 7.78341 -7.62009
lowerback 2.78546 3.58981 6.30663
upperback -1.51869 5.11199 2.16714
thorax -2.78205 2.44811 -1.52755
lowerneck -13.6206 1.10332 5.82218
upperneck 22.0034 1.63785 -5.95331
head 9.25146 0.62568 -2.83304
rclavicle 4.9211e-014 6.17475e-015
rhumerus -26.1876 8.47385 -69.7091
rradius 55.1912
rwrist -0.331194
rhand -11.2359 7.71276
rfingers 7.12502
rthumb 14.7932 -21.7393
lclavicle 4.9211e-014 6.17475e-015
lhumerus -24.9942 9.33949 63.2907
lradius 49.7167
lwrist 10.71
lhand -18.5303 -4.71205
lfingers 7.12502
lthumb 7.75855 25.1256
rfemur 8.8923 -4.18943 32.4731
rtibia 16.6324
rfoot -10.0341 -18.4204
rtoes -12.1617
lfemur -32.1727 -2.28458 -9.73993
ltibia 28.3212
lfoot -9.12663 17.5166
ltoes -17.0363
542
root 1.20692 17.9419 22.4109 0.424828 7.71222 -7.68605
lowerback 2.79327 3.90499 6.64416
upperback -1.56385 5.54431 2.03191
thorax -2.75949 2.65502 -1.8673
lowerneck -13.5841 1.05128 5.7217
upperneck 21.9157 1.58565 -5.93653
head 9.20963 0.595869 -2.81438
rclavicle -1.28552e-014 -2.6339e-015
rhumerus -25.453 9.04563 -70.207
rradius 55.1242
rwrist -0.26705
rhand -11.1395 7.76019
rfingers 7.12502
rthumb 14.8861 -21.685
lclavicle -1.28552e-014 -2.6339e-015
lhumerus -25.7604 10.3913 62.0285
lradius 50.0732
lwrist 10.9641
lhand -18.4261 -4.53618
lfingers 7.12502
lthumb 7.85908 25.2977
rfemur 9.54921 -4.07919 32.5064
rtibia 16.1442
rfoot -9.76457 -18.3405
rtoes -12.5989
lfemur -32.4848 -2.50199 -9.70176
ltibia 27.2409
lfoot -9.20319 16.8172
ltoes -17.294
543
root 1.22588 17.9219 22.5448 0.466818 7.58771 -7.74321
lowerback 2.84315 4.22401 6.94021
upperback -1.63326 5.9857 1.90182
thorax -2.78283 2.86522 -2.18251
lowerneck -13.5261 1.00997 5.65666
upperneck 21.8529 1.547 -5.93975
head 9.17378 0.573641 -2.80745
rclavicle -3.26069e-014 1.12313e-014
rhumerus -24.7834 9.63573 -70.7263
rradius 55.0816
rwrist -0.2863
rhand -11.0782 7.78309
rfingers 7.12502
rthumb 14.9451 -21.6577
lclavicle -3.26069e-014 1.12313e-014
lhumerus -26.6015 11.4342 60.7299
lradius 50.3942
lwrist 11.1521
lhand -18.3407 -4.34691
lfingers 7.12502
lthumb 7.94155 25.4839
rfemur 10.197 -3.8987 32.5449
rtibia 15.7132
rfoot -9.50793 -18.2892
rtoes -13.0305
lfemur -32.7918 -2.69164 -9.64889
ltibia 26.2775
lfoot -9.30105 16.1467
ltoes -17.545
544
root 1.24556 17.9096 22.6815 0.512271 7.45841 -7.78887
lowerback 2.89077 4.52909 7.21957
upperback -1.71137 6.40848 1.77105
thorax -2.8111 3.06588 -2.48801
lowerneck -13.4723 0.976586 5.59782
upperneck 21.8281 1.51881 -5.94087
head 9.15269 0.557129 -2.80033
rclavicle 3.22912e-014 2.52457e-014
rhumerus -24.1391 10.2258 -71.267
rradius 55.042
rwrist -0.371755
rhand -11.0422 7.78528
rfingers 7.12502
rthumb 14.9798 -21.6529
lclavicle 3.22912e-014 2.52457e-014
lhumerus -27.4802 12.5194 59.389
lradius 50.6283
lwrist 11.2554
lhand -18.2789 -4.20886
lfingers 7.12502
lthumb 8.00113 25.6197
rfemur 10.8243 -3.74007 32.5588
rtibia 15.3295
rfoot -9.26519 -18.219
rtoes -13.4548
lfemur -33.045 -2.84982 -9.61419
ltibia 25.4144
lfoot -9.43725 15.4833
ltoes -17.8104
545
root 1.26541 17.8959 22.8209 0.564356 7.2968 -7.81422
lowerback 3.05781 4.91566 7.63043
upperback -1.83309 6.95656 1.53242
thorax -2.90576 3.32094 -2.9911
lowerneck -13.5458 0.862249 5.48089
upperneck 21.8755 1.35833 -5.81972
head 9.1708 0.485419 -2.75834
rclavicle 3.01974e-014 1.07344e-014
rhumerus -23.6439 10.4943 -71.8239
rradius 55.0239
rwrist -0.447505
rhand -11.0462 7.78772
rfingers 7.12502
rthumb 14.976 -21.6508
lclavicle 3.01974e-014 1.07344e-014
lhumerus -28.2013 13.3385 58.081
lradius 50.7775
lwrist 11.3521
lhand -18.2544 -4.1048
lfingers 7.12502
lthumb 8.02485 25.7229
rfemur 11.428 -3.55089 32.5531
rtibia 15.0103
rfoot -9.04582 -18.1601
rtoes -13.8871
lfemur -33.2688 -2.98062 -9.58965
ltibia 24.6898
lfoot -9.60577 14.8761
ltoes -18.0604
546
root 1.28642 17.8811 22.9625 0.636346 7.12438 -7.81055
lowerback 3.38395 5.48287 8.33655
upperback -1.95018 7.76979 1.10367
thorax -2.97973 3.69927 -3.86933
lowerneck -14.0849 0.551495 5.08386
upperneck 22.1141 0.901467 -5.3942
head 9.32264 0.279437 -2.60446
rclavicle -8.90967e-014 -3.55825e-014
rhumerus -23.2668 10.064 -72.2714
rradius 55.0341
rwrist -0.494336
rhand -11.0691 7.8049
rfingers 7.12502
rthumb 14.9539 -21.6352
lclavicle -8.90967e-014 -3.55825e-014
lhumerus -28.4268 13.6621 57.0163
lradius 50.8269
lwrist 11.405
lhand -18.2189 -4.08494
lfingers 7.12502
lthumb 8.05908 25.7414
rfemur 12.0393 -3.37567 32.5045
rtibia 14.6617
rfoot -8.82166 -18.0783
rtoes -14.3108
lfemur -33.4439 -3.08207 -9.59915
ltibia 24.0536
lfoot -9.76315 14.3172
ltoes -18.334
547
root 1.30762 17.8643 23.1061 0.714742 6.93525 -7.82579
lowerback 3.69373 5.94067 8.87187
upperback -2.03996 8.43229 0.752176
thorax -3.04121 4.00776 -4.56991
lowerneck -14.7309 0.380936 4.90735
upperneck 22.3777 0.627658 -5.15249
head 9.51928 0.157399 -2.53253
rclavicle -9.1552e-014 -1.59028e-014
rhumerus -22.7065 9.8869 -72.8073
rradius 55.0055
rwrist -0.556732
rhand -11.1077 7.82694
rfingers 7.12502
rthumb 14.9167 -21.616
lclavicle -9.1552e-014 -1.59028e-014
lhumerus -28.8497 14.1785 55.8034
lradius 50.9092
lwrist 11.4667
lhand -18.1483 -4.07454
lfingers 7.12502
lthumb 8.1272 25.7492
rfemur 12.6132 -3.19482 32.4743
rtibia 14.3863
rfoot -8.62845 -17.9975
rtoes -14.7373
lfemur -33.5884 -3.12681 -9.59312
ltibia 23.5736
lfoot -9.92202 13.7992
ltoes -18.637
548
root 1.32957 17.8454 23.251 0.801357 6.74827 -7.83462
lowerback 4.03577 6.46667 9.53139
upperback -2.12937 9.19653 0.321405
thorax -3.05385 4.36556 -5.42256
lowerneck -15.4268 0.128148 4.6764
upperneck 22.6394 0.231037 -4.83269
head 9.72014 -0.0164488 -2.44099
rclavicle -8.07687e-014 5.56597e-015
rhumerus -22.2079 9.39561 -73.3018
rradius 54.9928
rwrist -0.570302
rhand -11.1308 7.84072
rfingers 7.12502
rthumb 14.8945 -21.6038
lclavicle -8.07687e-014 5.56597e-015
lhumerus -29.1062 14.4004 54.6986
lradius 50.9829
lwrist 11.507
lhand -18.022 -4.04452
lfingers 7.12502
lthumb 8.24911 25.7744
rfemur 13.1503 -3.03729 32.4277
rtibia 14.1793
rfoot -8.47178 -17.9049
rtoes -15.1617
lfemur -33.7053 -3.1228 -9.60767
ltibia 23.2583
lfoot -10.0745 13.3232
ltoes -18.8954
